<svg version="1.1" id="Layer_1" xmlns="http://www.w3.org/2000/svg" xmlns:xlink="http://www.w3.org/1999/xlink" x="0px" y="0px" width="1254" viewBox="0 0 1254 1254" enable-background="new 0 0 1254 1254" xml:space="preserve" height="1254"><metadata><?xpacket begin="" id="W5M0MpCehiHzreSzNTczkc9d"?><x:xmpmeta xmlns:x="adobe:ns:meta/" x:xmptk="XMP Core 6.0.0"><rdf:RDF xmlns:rdf="http://www.w3.org/1999/02/22-rdf-syntax-ns#"><rdf:Description rdf:about="" xmlns:xmp="http://ns.adobe.com/xap/1.0/" xmlns:xmpMM="http://ns.adobe.com/xap/1.0/mm/" xmlns:dc="http://purl.org/dc/elements/1.1/" xmlns:dcterms="http://purl.org/dc/terms/" xmpMM:DocumentID="xmp.did:cb9f5498-bb58-4572-8043-8c369e6bfb9b" xmpMM:InstanceID="xmp.iid:cb9f5498-bb58-4572-8043-8c369e6bfb9b" dcterms:provenance="https://cai-manifests.adobe.com/manifests/urn-c2pa-d7dadc38-8a43-4aca-8cd8-e90b46704aa1-adobe"> </rdf:Description></rdf:RDF></x:xmpmeta>
<?xpacket end="w"?></metadata>
<path fill="#0A0B0F" opacity="1.000000" stroke="none" d="
M824.000000,1255.000000 
	C549.333313,1255.000000 275.166656,1255.000000 1.000000,1255.000000 
	C1.000000,837.000000 1.000000,419.000000 1.000000,1.000000 
	C419.000000,1.000000 837.000000,1.000000 1255.000000,1.000000 
	C1255.000000,419.000000 1255.000000,837.000000 1255.000000,1255.000000 
	C1111.500000,1255.000000 968.000000,1255.000000 824.000000,1255.000000 
M543.788269,318.501129 
	C543.801575,314.338806 543.868103,310.175873 543.818787,306.014313 
	C543.615784,288.861908 530.874207,275.627808 513.789185,274.782074 
	C503.013947,274.248657 494.896637,266.284912 495.186798,256.531555 
	C495.505829,245.808716 503.691315,237.966415 514.697083,237.965546 
	C590.362732,237.959488 666.028381,237.966202 741.694031,237.995667 
	C752.709595,237.999954 760.940491,245.954315 761.098450,256.581268 
	C761.248047,266.649139 753.586487,274.215332 742.582520,274.866730 
	C724.824890,275.917938 712.197876,289.143127 712.192322,306.888306 
	C712.172668,370.053925 711.957397,433.221588 712.487000,496.382874 
	C712.565857,505.784607 714.806824,515.789124 718.596680,524.391846 
	C724.135986,536.965881 731.857849,548.596619 738.864258,560.503113 
	C782.491333,634.642029 826.196167,708.735291 869.838501,782.865356 
	C895.432190,826.338257 921.042664,869.801941 946.399475,913.412842 
	C949.349121,918.485901 951.827759,924.318787 952.635315,930.064880 
	C955.684937,951.765686 936.452576,971.471497 912.800903,971.478760 
	C847.968567,971.498535 783.136230,971.469055 718.303894,971.462097 
	C693.971008,971.459473 669.638000,971.414124 645.305359,971.489258 
	C633.395447,971.526062 626.082458,980.244751 627.971680,991.884033 
	C629.323364,1000.211670 636.389221,1005.279053 646.878723,1005.280273 
	C735.710693,1005.290527 824.542725,1005.261047 913.374695,1005.288269 
	C929.233582,1005.293152 943.415222,1000.413269 956.322693,991.346924 
	C982.748596,972.785095 996.507629,933.939819 977.684814,900.807312 
	C973.571533,893.567017 969.448975,886.330688 965.231812,879.150574 
	C922.739197,806.803833 880.261841,734.447937 837.705750,662.138489 
	C809.861572,614.826721 781.988159,567.531555 753.892151,520.369324 
	C749.171753,512.445557 745.731323,504.481110 745.738892,495.126434 
	C745.785583,437.294067 745.752380,379.461639 745.745850,321.629211 
	C745.745361,317.496674 745.745789,313.364136 745.745789,309.191925 
	C748.503174,308.711548 750.791321,308.384644 753.048096,307.908844 
	C778.238098,302.597687 795.504333,280.617523 794.513794,255.137299 
	C793.384583,226.091187 770.137573,204.811203 741.068787,204.807541 
	C665.569824,204.798019 590.070923,204.762329 514.572021,204.816620 
	C510.775635,204.819351 506.883118,205.164322 503.199890,206.041046 
	C484.071838,210.594223 470.837250,222.125427 464.653778,240.806503 
	C458.478302,259.463409 462.019745,276.675110 474.720886,291.731903 
	C483.858368,302.564056 495.856018,308.125336 510.022064,309.321411 
	C510.107086,310.435455 510.221710,311.238037 510.222015,312.040680 
	C510.245850,373.706207 510.378296,435.372314 510.082489,497.036377 
	C510.054901,502.790100 508.399017,509.128662 505.626923,514.165222 
	C497.364288,529.177551 488.154877,543.668152 479.340240,558.377563 
	C448.990234,609.024170 418.575226,659.632141 388.327240,710.339722 
	C353.518860,768.692322 318.703491,827.042114 284.267242,885.614319 
	C277.058472,897.875671 269.841919,910.438171 268.142426,925.086182 
	C263.384216,966.096252 297.356232,1004.355774 339.358795,1004.602234 
	C390.522736,1004.902405 441.690613,1004.782898 492.855499,1004.552856 
	C513.138062,1004.461670 530.882324,997.542480 545.646729,983.213135 
	C580.206787,949.671387 614.920715,916.288208 649.547729,882.815430 
	C656.170715,876.413147 656.214294,865.934692 649.550232,859.011353 
	C611.763733,819.754089 573.944885,780.527954 536.098999,741.327942 
	C528.460815,733.416504 518.285278,733.464844 510.471741,741.253235 
	C503.048798,748.652222 502.833466,759.835266 510.216980,767.219299 
	C523.179138,780.182129 536.339966,792.946228 549.298096,805.913086 
	C570.836853,827.466553 592.281006,849.114441 614.239563,871.199890 
	C612.468506,872.768311 610.546631,874.356812 608.750977,876.077087 
	C580.352966,903.282043 551.818237,930.347107 523.672241,957.810608 
	C514.340332,966.916260 503.658203,971.023254 490.857361,970.999695 
	C441.024963,970.907898 391.192291,970.955139 341.359741,970.945862 
	C340.193878,970.945618 339.024658,970.934509 337.862640,970.850342 
	C310.054016,968.836670 293.035370,939.630249 305.800537,916.464844 
	C309.658295,909.463989 313.258148,902.311890 317.337402,895.443665 
	C345.645020,847.781921 374.019562,800.159912 402.428375,752.558350 
	C430.993469,704.695007 459.614319,656.864868 488.227997,609.030518 
	C503.359497,583.734802 518.574829,558.489075 533.658447,533.164917 
	C540.460083,521.745422 543.780701,509.273468 543.789062,495.998108 
	C543.826294,437.165680 543.794678,378.333221 543.788269,318.501129 
z"></path>
<path fill="#FBFBFB" opacity="1.000000" stroke="none" d="
M543.788086,319.000946 
	C543.794678,378.333221 543.826294,437.165680 543.789062,495.998108 
	C543.780701,509.273468 540.460083,521.745422 533.658447,533.164917 
	C518.574829,558.489075 503.359497,583.734802 488.227997,609.030518 
	C459.614319,656.864868 430.993469,704.695007 402.428375,752.558350 
	C374.019562,800.159912 345.645020,847.781921 317.337402,895.443665 
	C313.258148,902.311890 309.658295,909.463989 305.800537,916.464844 
	C293.035370,939.630249 310.054016,968.836670 337.862640,970.850342 
	C339.024658,970.934509 340.193878,970.945618 341.359741,970.945862 
	C391.192291,970.955139 441.024963,970.907898 490.857361,970.999695 
	C503.658203,971.023254 514.340332,966.916260 523.672241,957.810608 
	C551.818237,930.347107 580.352966,903.282043 608.750977,876.077087 
	C610.546631,874.356812 612.468506,872.768311 614.239563,871.199890 
	C592.281006,849.114441 570.836853,827.466553 549.298096,805.913086 
	C536.339966,792.946228 523.179138,780.182129 510.216980,767.219299 
	C502.833466,759.835266 503.048798,748.652222 510.471741,741.253235 
	C518.285278,733.464844 528.460815,733.416504 536.098999,741.327942 
	C573.944885,780.527954 611.763733,819.754089 649.550232,859.011353 
	C656.214294,865.934692 656.170715,876.413147 649.547729,882.815430 
	C614.920715,916.288208 580.206787,949.671387 545.646729,983.213135 
	C530.882324,997.542480 513.138062,1004.461670 492.855499,1004.552856 
	C441.690613,1004.782898 390.522736,1004.902405 339.358795,1004.602234 
	C297.356232,1004.355774 263.384216,966.096252 268.142426,925.086182 
	C269.841919,910.438171 277.058472,897.875671 284.267242,885.614319 
	C318.703491,827.042114 353.518860,768.692322 388.327240,710.339722 
	C418.575226,659.632141 448.990234,609.024170 479.340240,558.377563 
	C488.154877,543.668152 497.364288,529.177551 505.626923,514.165222 
	C508.399017,509.128662 510.054901,502.790100 510.082489,497.036377 
	C510.378296,435.372314 510.245850,373.706207 510.222015,312.040680 
	C510.221710,311.238037 510.107086,310.435455 510.022064,309.321411 
	C495.856018,308.125336 483.858368,302.564056 474.720886,291.731903 
	C462.019745,276.675110 458.478302,259.463409 464.653778,240.806503 
	C470.837250,222.125427 484.071838,210.594223 503.199890,206.041046 
	C506.883118,205.164322 510.775635,204.819351 514.572021,204.816620 
	C590.070923,204.762329 665.569824,204.798019 741.068787,204.807541 
	C770.137573,204.811203 793.384583,226.091187 794.513794,255.137299 
	C795.504333,280.617523 778.238098,302.597687 753.048096,307.908844 
	C750.791321,308.384644 748.503174,308.711548 745.745789,309.191925 
	C745.745789,313.364136 745.745361,317.496674 745.745850,321.629211 
	C745.752380,379.461639 745.785583,437.294067 745.738892,495.126434 
	C745.731323,504.481110 749.171753,512.445557 753.892151,520.369324 
	C781.988159,567.531555 809.861572,614.826721 837.705750,662.138489 
	C880.261841,734.447937 922.739197,806.803833 965.231812,879.150574 
	C969.448975,886.330688 973.571533,893.567017 977.684814,900.807312 
	C996.507629,933.939819 982.748596,972.785095 956.322693,991.346924 
	C943.415222,1000.413269 929.233582,1005.293152 913.374695,1005.288269 
	C824.542725,1005.261047 735.710693,1005.290527 646.878723,1005.280273 
	C636.389221,1005.279053 629.323364,1000.211670 627.971680,991.884033 
	C626.082458,980.244751 633.395447,971.526062 645.305359,971.489258 
	C669.638000,971.414124 693.971008,971.459473 718.303894,971.462097 
	C783.136230,971.469055 847.968567,971.498535 912.800903,971.478760 
	C936.452576,971.471497 955.684937,951.765686 952.635315,930.064880 
	C951.827759,924.318787 949.349121,918.485901 946.399475,913.412842 
	C921.042664,869.801941 895.432190,826.338257 869.838501,782.865356 
	C826.196167,708.735291 782.491333,634.642029 738.864258,560.503113 
	C731.857849,548.596619 724.135986,536.965881 718.596680,524.391846 
	C714.806824,515.789124 712.565857,505.784607 712.487000,496.382874 
	C711.957397,433.221588 712.172668,370.053925 712.192322,306.888306 
	C712.197876,289.143127 724.824890,275.917938 742.582520,274.866730 
	C753.586487,274.215332 761.248047,266.649139 761.098450,256.581268 
	C760.940491,245.954315 752.709595,237.999954 741.694031,237.995667 
	C666.028381,237.966202 590.362732,237.959488 514.697083,237.965546 
	C503.691315,237.966415 495.505829,245.808716 495.186798,256.531555 
	C494.896637,266.284912 503.013947,274.248657 513.789185,274.782074 
	C530.874207,275.627808 543.615784,288.861908 543.818787,306.014313 
	C543.868103,310.175873 543.801575,314.338806 543.788086,319.000946 
z"></path>
</svg>